<?xml version="1.0" encoding="UTF-8"?>
<svg width="34px" height="34px" viewBox="0 0 34 34" version="1.1" xmlns="http://www.w3.org/2000/svg" xmlns:xlink="http://www.w3.org/1999/xlink">
    <!-- Generator: Sketch 51.3 (57544) - http://www.bohemiancoding.com/sketch -->
    <title>Group</title>
    <desc>Created with Sketch.</desc>
    <defs></defs>
    <g id="Symbols" stroke="none" stroke-width="1" fill="none" fill-rule="evenodd">
        <g id="pinned/-alert---black-1024" transform="translate(-16.000000, -8.000000)" fill="#FF6161" fill-rule="nonzero">
            <g id="Group" transform="translate(16.000000, 8.000000)">
                <path d="M18.5136368,15.4857431 C15.7468087,12.7188645 12.5169657,11 10.084402,11 C9.05664942,11 8.19593712,11.3174978 7.59530013,11.9182017 C7.13476733,12.3787046 6.84633103,12.9752715 6.73228952,13.6805975 L0.0377174716,33.0855676 C-0.048330776,33.3349875 0.0155159205,33.6115742 0.202045722,33.7980646 C0.333508323,33.9294858 0.509695787,34 0.689560527,34 C0.764944675,34 0.840972347,33.9875888 0.91460979,33.9622147 L20.2881061,27.2696157 C21.0098174,27.1568573 21.6216701,26.8637222 22.0810078,26.4043225 C23.1317893,25.3535504 23.2870163,23.5944643 22.518098,21.4511355 C21.8106361,19.4791737 20.3884958,17.3606674 18.5136368,15.4857431 Z M21.1058863,25.429213 C20.8459488,25.6892054 20.4881959,25.851287 20.0394763,25.9138488 C20.0337306,25.9144924 20.0280308,25.9151819 20.0222851,25.9160093 C19.8870073,25.9340745 19.7438694,25.9435898 19.5923196,25.9435898 L19.59186,25.9435898 C17.542974,25.943314 14.6170118,24.3411152 12.1377007,21.8618096 C10.4037274,20.1277758 9.09627207,18.1901518 8.45610436,16.4058295 C7.88589683,14.8163636 7.927496,13.5360755 8.5702378,12.8933113 C8.91148897,12.5520942 9.42088357,12.3790264 10.0842641,12.3790264 C12.1329662,12.3790264 15.0589284,13.9812253 17.5384234,16.4608526 C19.2723967,18.1948864 20.579852,20.1325104 21.2199737,21.9168327 C21.7903192,23.5062066 21.7487659,24.7864488 21.1058863,25.429213 Z M3.85799306,26.2401724 L7.13934326,16.7767334 C7.44708252,18.1878662 9.48998291,21.1935396 11.16,22.84 C12.8300171,24.4864604 15.6561279,26.4295654 17.1658325,26.9002075 L7.75871333,30.1389432 L1.80326939,32.1961875 L3.85932222,26.2419628 L3.85799306,26.2401724 Z" id="Shape"></path>
                <path d="M33.8064634,13.1825007 C33.5484954,12.9391249 33.1301617,12.939208 32.8721496,13.1825007 C31.4475335,14.5260734 30.3027755,14.4699545 28.9777879,14.4051955 C27.5694242,14.3362826 25.9729909,14.258065 24.1935091,15.9363158 C23.935497,16.1796086 23.935497,16.5741442 24.1935091,16.8174785 C24.3225151,16.9391457 24.4916016,17 24.660644,17 C24.8296864,17 24.9988169,16.9391457 25.1277789,16.8174785 C26.4914815,15.5312709 27.6117068,15.5862683 28.9092548,15.6496565 C30.341975,15.7198156 31.9660242,15.7992793 33.8064194,14.0636634 C34.0645195,13.8203291 34.0645195,13.4257935 33.8064634,13.1825007 Z" id="Path"></path>
                <path d="M12.7349329,10 C13.1408389,10 13.4699147,9.68937463 13.4699147,9.30622685 C13.4699147,7.19058874 14.4169634,6.38484059 15.5135563,5.45190071 C16.6789926,4.46036011 18.000049,3.33649386 18,0.693773155 C18,0.310625367 17.6709241,0 17.2650181,0 C16.8591121,0 16.5300363,0.310625367 16.5300363,0.693773155 C16.5300363,2.71912825 15.6029301,3.50790208 14.5294156,4.42123131 C13.3438409,5.42997748 12,6.57322313 12,9.30622685 C11.999951,9.68942088 12.3290269,10 12.7349329,10 Z" id="Path"></path>
                <path d="M26.5005159,10 L26.5007531,10 C27.1685315,10 27.7964595,9.73994005 28.2687813,9.26777211 C29.2437396,8.29303345 29.2437396,6.70701398 28.2687813,5.73222789 C27.7964595,5.26001252 27.1685315,5 26.5006108,5 C25.8326901,5 25.2047621,5.26001252 24.7324878,5.73222789 C24.2601186,6.20439583 24,6.83218236 24,7.5 C24,8.16781764 24.2601186,8.79560417 24.7324403,9.26777211 C25.2046672,9.73989262 25.8325952,9.99990514 26.5005159,10 Z M25.738852,6.73836536 C25.9422786,6.53493711 26.2128342,6.4229069 26.5006108,6.4229069 C26.7883874,6.4229069 27.0588955,6.53493711 27.2623696,6.73836536 C27.6824115,7.15831262 27.6824115,7.84168738 27.2624171,8.26158721 C27.0588955,8.46506289 26.7884349,8.5770931 26.5007531,8.5770931 L26.5006582,8.5770931 C26.2128342,8.57704567 25.9422786,8.46501546 25.7387571,8.26158721 C25.535283,8.05815895 25.4232275,7.78766435 25.4232275,7.49995257 C25.4232275,7.21224079 25.535283,6.94184105 25.738852,6.73836536 Z" id="Shape"></path>
                <path d="M11.5000623,5 C12.1681406,5 12.7962169,4.73994005 13.2686502,4.26777211 C14.2437912,3.29298602 14.2437912,1.70696655 13.2686027,0.732227893 C12.7962169,0.260012522 12.1680932,0 11.5000148,0 C10.8319365,0 10.2038602,0.260012522 9.73142694,0.732227893 C8.75619102,1.70696655 8.75619102,3.29303345 9.73142694,4.26781954 C10.2039077,4.73998748 10.8319839,5 11.5000623,5 Z M10.7380762,1.73836536 C10.9415983,1.53493711 11.2122177,1.4229069 11.5000623,1.4229069 C11.7879068,1.4229069 12.0585737,1.53493711 12.2620958,1.73836536 C12.6822369,2.15831262 12.6822369,2.84168738 12.2620484,3.26163464 C12.0585737,3.46506289 11.7879543,3.5770931 11.5001097,3.5770931 C11.2122652,3.5770931 10.9416458,3.46506289 10.7380762,3.26163464 C10.3178877,2.84163995 10.3178877,2.15831262 10.7380762,1.73836536 Z" id="Shape"></path>
                <path d="M16.3408835,9.33377786 C16.2683918,9.37556466 16.2053931,9.42975122 16.1539314,9.4928402 C16.0911598,9.56950988 16.0476012,9.65653542 16.0232557,9.74773963 C16.0079943,9.80456059 15.9999548,9.86378882 16.0000002,9.92401631 C16.0000456,9.96026181 16.0029525,9.99687067 16.0089935,10.0336158 C16.0219384,10.1134649 16.0491455,10.1914972 16.0906147,10.263534 C16.1229089,10.3198099 16.1626522,10.3704083 16.2082547,10.4143298 L19.5860194,13.791929 C19.6295326,13.8370769 19.6795863,13.8764564 19.735136,13.9085687 C19.8073097,13.9503101 19.8855243,13.977744 19.9656012,13.9908705 C20.0027101,13.9970023 20.0398189,14 20.0765189,14 C20.1359747,14 20.1944768,13.9921423 20.2506623,13.9771989 C20.3436842,13.9526265 20.4325727,13.9080691 20.510424,13.8434812 C20.5715604,13.7930191 20.6242032,13.7316561 20.6650819,13.6612999 C20.6978757,13.6050694 20.7219033,13.5451144 20.7372102,13.4834789 L21.9735649,8.86926316 C21.9909157,8.80894483 22.0000453,8.74585586 21.9999998,8.68158595 L21.9999998,8.68154053 C22.0000453,8.59819405 21.9847384,8.51675522 21.9559416,8.44090311 C21.9206497,8.34706451 21.8662355,8.26489896 21.7983768,8.19772214 C21.7323804,8.13218047 21.6522126,8.07940193 21.5609622,8.04479157 C21.4846552,8.01563165 21.4028069,8.00005245 21.3189146,8.00005245 C21.318415,7.99996161 21.3182787,8.00000703 21.3180062,8.00005245 C21.2539628,8.00005245 21.191055,8.00918195 21.1309178,8.02644172 L16.5165258,9.26283116 C16.4556619,9.27795616 16.3964785,9.3016202 16.3408835,9.33377786 Z M20.3549939,9.64504405 L19.7234174,12.0023188 L17.9977442,10.2766605 L20.3549939,9.64504405 Z" id="Shape"></path>
                <path d="M30.3624414,18 L27.6375586,18 C27.2854562,18 27,18.2854137 27,18.6375586 L27,21.3624414 C27,21.7145013 27.2854562,22 27.6375586,22 L30.3624414,22 C30.7145438,22 31,21.7145013 31,21.3624414 L31,18.6375586 C31,18.2854137 30.7145438,18 30.3624414,18 Z M29.7248828,20.7249254 L28.2751172,20.7249254 L28.2751172,19.2751597 L29.7248828,19.2751597 L29.7248828,20.7249254 Z" id="Shape"></path>
            </g>
        </g>
    </g>
</svg>